<svg version="1.1" id="Layer_1" xmlns="http://www.w3.org/2000/svg" xmlns:xlink="http://www.w3.org/1999/xlink" x="0px" y="0px" viewBox="0 0 866.3 160.5" style="enable-background:new 0 0 866.3 160.5;" xml:space="preserve"><style type="text/css">.st0{fill:#009BDC;}.st1{fill:#F3AA56;}</style><path class="st0" d="M866.3,105.2v26.7h-2.4c-0.5-1.8-1.2-3.1-2-3.8c-0.8-0.7-2-1-3.5-1h-93.6v-2.4c1.8-0.5,3-1.2,3.7-2c0.7-0.8,1.1-2,1.1-3.6V81.7l22.5,0V110h66.3c1.5,0,2.7-0.4,3.5-1.1c0.8-0.7,1.4-1.9,2-3.7L866.3,105.2L866.3,105.2z"/><path class="st0" d="M864.5,19v26.7h-2.4c-0.5-1.8-1.2-3-2-3.7c-0.8-0.7-2-1.1-3.5-1.1h-64.5v24.3l-22.5-0.1V31.7c0-1.6-0.4-2.7-1.1-3.6c-0.7-0.8-1.9-1.5-3.7-2v-2.4h91.8c1.5,0,2.7-0.4,3.5-1.1c0.8-0.7,1.5-2,2-3.7L864.5,19L864.5,19z"/><rect x="811.1" y="65.2" class="st0" width="18.9" height="16.7"/><path class="st0" d="M756.2,23.8v2.4c-2.2,0.3-3.8,0.9-4.6,1.9c-0.9,1-2.4,3.7-4.5,8.3l-35.9,77.3c-1.5,3.3-2.3,5.4-2.3,6.4c0,2.6,1.6,4.1,4.8,4.5v2.4h-35.6v-2.4c1.6-0.2,2.8-0.7,3.6-1.5c0.8-0.8,1.2-1.8,1.2-3.1c0-1-0.8-3.1-2.3-6.4l-35.8-77.3c-1.1-2.3-2-4.1-2.7-5.5c-0.7-1.4-1.3-2.3-1.8-2.8c-0.9-1-2.4-1.6-4.6-1.9v-2.4h36.8v2.4c-1.7,0.3-2.9,0.8-3.7,1.5c-0.8,0.7-1.3,1.6-1.3,2.7c0,1.4,0.6,3.4,1.7,6l27.2,61l27.7-61c1.2-2.6,1.7-4.6,1.7-6c0-2.2-1.7-3.6-5-4.2v-2.4L756.2,23.8L756.2,23.8z"/><path class="st0" d="M627,124.7v2.4h-32.1v-2.4c1.8-0.5,3.1-1.2,3.8-2c0.7-0.8,1-2,1-3.6V31.7c0-1.5-0.4-2.7-1-3.5c-0.7-0.8-2-1.5-3.8-2v-2.4H627v2.4c-1.8,0.5-3.1,1.1-3.7,1.9c-0.7,0.8-1.1,2-1.1,3.5v87.5c0,1.6,0.4,2.8,1.1,3.6C624,123.6,625.3,124.2,627,124.7z"/><path class="st0" d="M584.7,19v26.7h-2.4c-0.5-1.8-1.2-3.1-2-3.8c-0.8-0.7-2-1-3.5-1h-32v78.2c0,1.6,0.4,2.7,1.1,3.6c0.7,0.8,1.9,1.5,3.7,2v2.4h-32.1v-2.4c1.8-0.5,3-1.2,3.7-2c0.7-0.8,1.1-2,1.1-3.6V40.9h-32.1c-1.5,0-2.7,0.3-3.5,1c-0.8,0.7-1.5,1.9-2,3.8h-2.4V19h2.4c0.6,1.8,1.2,3.1,2,3.8c0.8,0.7,1.9,1,3.4,1h86.6c1.6,0,2.7-0.4,3.5-1c0.8-0.7,1.5-1.9,2-3.8H584.7z"/><path class="st1" d="M492.9,124.7v2.4h-38.1v-2.4c3.4-0.6,5.1-2.1,5.1-4.7c0-1.1-0.5-2.6-1.5-4.7L428,49.8l-30.6,65.4c-1,2-1.4,3.6-1.4,4.8c0,1.1,0.4,2.1,1.3,2.8c0.9,0.8,2.1,1.4,3.8,1.8v2.4h-34.2v-2.4c2-0.4,3.6-1.1,4.6-2.1s2.3-3,3.6-5.9L429.7,0l53.8,115.3c1.7,3.4,3.1,5.7,4.4,6.9C489.1,123.5,490.8,124.3,492.9,124.7z"/><rect x="371.9" y="140.9" class="st0" width="115.9" height="19.6"/><path class="st0" d="M359.2,105.2v26.7h-2.4c-0.5-1.8-1.2-3.1-2-3.8c-0.8-0.7-1.9-1-3.5-1h-93.6v-2.4c1.8-0.5,3-1.2,3.7-2c0.7-0.8,1.1-2,1.1-3.6V81.7l22.5,0V110h66.3c1.5,0,2.7-0.4,3.5-1.1c0.8-0.7,1.5-1.9,2-3.7L359.2,105.2L359.2,105.2z"/><path class="st0" d="M357.4,19v26.7H355c-0.5-1.8-1.2-3-2-3.7c-0.8-0.7-2-1.1-3.5-1.1h-64.5v24.3l-22.5-0.1V31.7c0-1.6-0.4-2.7-1.1-3.6c-0.7-0.8-1.9-1.5-3.7-2v-2.4h91.8c1.5,0,2.7-0.4,3.5-1.1c0.8-0.7,1.5-2,2-3.7L357.4,19L357.4,19z"/><rect x="304.1" y="65.2" class="st0" width="18.9" height="16.7"/><path class="st0" d="M245.3,124.7v2.4h-37.1v-2.4c2.5-0.4,3.8-1.3,3.8-2.7c0-0.9-1.2-3.1-3.5-6.6l-33.4-47.5c5.2,0,28.2-0.2,30.4-0.4c2.1-0.3,4.1-0.9,5.8-1.9c3.8-2.1,5.8-5.8,5.8-11.2s-1.9-9.1-5.8-11.2c-1.8-1-3.7-1.6-5.8-1.9c-1-0.1-2.4-0.2-4.3-0.3c-1.8-0.1-4.1-0.1-6.7-0.1h-34.8v78.3c0,1.5,0.4,2.7,1.1,3.5c0.7,0.8,1.9,1.5,3.7,1.9v2.4h-32.1v-2.4c1.8-0.5,3.1-1.2,3.8-2c0.7-0.8,1-2,1-3.5V31.7c0-1.6-0.3-2.7-1-3.6c-0.7-0.8-1.9-1.5-3.8-2v-2.4h64.6c7.9,0,14.1,0.4,18.7,1.4c4.6,0.9,8.6,2.5,12.1,4.8c4,2.6,7,6.2,8.9,10.7c1.9,4.3,2.8,9,2.8,13.9c0,8.4-2.3,15.1-7,20.1c-4.7,4.9-11.7,8.1-21.1,9.6l20,28.5c3.5,5,6.1,8.2,7.8,9.6C240.9,123.7,242.9,124.5,245.3,124.7z"/><path class="st0" d="M116.8,37.6l-14.3,21.6l-2-1.4c0.1-0.8,0.2-1.5,0.2-2.1c0-1.5-0.6-2.8-1.9-4.1c-1.3-1.3-3.5-2.8-6.7-4.7c-8.9-5-18.3-7.6-28.3-7.6c-11.8,0-21.1,3-28.1,8.9c-8.3,6.9-12.4,16-12.4,27.1c0,11.2,4.1,20.2,12.4,27.2c7,5.9,16.4,8.9,28.1,8.9c10,0,19.4-2.5,28.3-7.6c3.2-1.8,5.5-3.4,6.7-4.6s1.9-2.7,1.9-4.1c0-0.6-0.1-1.2-0.2-2l2-1.4l14.3,21.4l-2,1.4c-1.4-1.3-2.6-2-3.5-2s-3.5,1.2-7.6,3.6c-8.7,5-16,8.4-21.9,10.1c-5.9,1.7-13,2.6-21.1,2.6c-16.3,0-29.6-3.9-40.1-11.6c-6.2-4.5-11-10.1-14.5-16.7C2,93,0,84.6,0,75.4C0,62.9,3.7,52,11,42.8C21.9,28.9,38.6,22,60.8,22c8.1,0,15.2,0.9,21,2.6c5.8,1.7,13.2,5.1,21.9,10.1c4.2,2.4,6.7,3.5,7.6,3.5s2.1-0.7,3.5-2L116.8,37.6z"/></svg>